<svg xmlns="http://www.w3.org/2000/svg" width="646.227" height="422.283" viewBox="0 0 646.227 422.283">
  <g id="border" transform="translate(-621.672 -785.83)" fill="rgba(88,232,242,0.48)" style="mix-blend-mode: hard-light;isolation: isolate">
    <path d="M1000.125,791.592,656.2,891.644l-28.978,310.828,631.374-69.6-258.469-341.28m1.908-5.762L1267.9,1136.877l-646.227,71.236,29.863-320.32Z" stroke="none"/>
    <path d="M 1001.651123046875 786.9820556640625 L 652.4676513671875 888.5631103515625 L 622.7813720703125 1206.98486328125 L 1266.037353515625 1136.075927734375 L 1001.651123046875 786.9820556640625 M 626.1099853515625 1203.599853515625 L 626.223876953125 1202.378662109375 L 655.265380859375 890.8736572265625 L 655.9185791015625 890.68359375 L 1000.506225585938 790.439453125 L 1000.921813964844 790.9881591796875 L 1260.454345703125 1133.673095703125 L 1258.703002929688 1133.8662109375 L 626.1099853515625 1203.599853515625 M 1002.03271484375 785.82958984375 L 1267.8984375 1136.876953125 L 621.671875 1208.11328125 L 651.53515625 887.79296875 L 1002.03271484375 785.82958984375 Z M 627.219482421875 1202.471435546875 L 1258.593383789062 1132.872314453125 L 1000.124633789062 791.5919189453125 L 656.1978759765625 891.643798828125 L 627.219482421875 1202.471435546875 Z" stroke="none" fill="rgba(238,252,253,0.4)"/>
  </g>
</svg>
