<svg xmlns="http://www.w3.org/2000/svg" width="453.346" height="615.84" viewBox="0 0 453.346 615.84">
  <g id="border" transform="translate(139.588 -571.322)" fill="rgba(12,13,13,0.48)" style="mix-blend-mode: hard-light;isolation: isolate">
    <path d="M-112.526,1178.541l419.711-161.409-46.491-348.45L-133.321,578.9l20.8,599.636m-5.7,8.622-21.357-615.84L266.09,663.757l47.668,357.274Z" stroke="none"/>
    <path d="M -117.2800903320312 1185.72607421875 L 312.6628723144531 1020.381713867188 L 265.1909484863281 664.5780029296875 L -138.5435791015625 572.586669921875 L -117.2800903320312 1185.72607421875 M -134.3658447265625 577.64111328125 L -133.0993041992188 577.9297485351562 L 261.5935363769531 667.8609619140625 L 308.2804565429688 1017.781494140625 L 307.5437622070312 1018.064819335938 L -113.4769973754883 1179.977905273438 L -113.5256118774414 1178.575561523438 L -134.3658447265625 577.64111328125 M -118.230842590332 1187.1630859375 L -139.5879974365234 571.3231201171875 L 266.0903015136719 663.75732421875 L 313.7584533691406 1021.031799316406 L -118.230842590332 1187.1630859375 Z M -133.3214569091797 578.9047241210938 L -112.5262222290039 1178.540893554688 L 307.1848449707031 1017.131408691406 L 260.6941528320312 668.681640625 L -133.3214569091797 578.9047241210938 Z" stroke="none" fill="rgba(238,252,253,0.4)"/>
  </g>
</svg>
