<svg xmlns="http://www.w3.org/2000/svg" width="516.939" height="571.984" viewBox="0 0 516.939 571.984">
  <g id="border" transform="translate(-1557.83 -119.596)" fill="rgba(24,164,173,0.48)" style="mix-blend-mode: hard-light;isolation: isolate">
    <path d="M2028.026,127.767l-462.4,157.969,150.386,399.109,352.331-59.169-40.318-497.909m5.358-8.171,41.385,511.085-362.63,60.9L1557.83,282.059Z" stroke="none"/>
    <path d="M 2032.490844726562 120.9573974609375 L 1559.129150390625 282.6716918945312 L 1712.783935546875 690.4571533203125 L 2073.697998046875 629.8468017578125 L 2032.490844726562 120.9573974609375 M 1715.366821289062 685.9673461914062 L 1715.07666015625 685.197509765625 L 1564.3271484375 285.1229248046875 L 1565.303466796875 284.7894287109375 L 2028.918823242188 126.4047241210938 L 2029.0224609375 127.685791015625 L 2069.41455078125 626.5101318359375 L 2068.50927734375 626.6622314453125 L 1715.366821289062 685.9673461914062 M 2033.3837890625 119.5955810546875 L 2074.768798828125 630.6810302734375 L 1712.138305664062 691.57958984375 L 1557.82958984375 282.0589599609375 L 2033.3837890625 119.5955810546875 Z M 1716.012451171875 684.844970703125 L 2068.34375 625.676025390625 L 2028.025756835938 127.7665405273438 L 1565.626708984375 285.7357177734375 L 1716.012451171875 684.844970703125 Z" stroke="none" fill="rgba(238,252,253,0.4)"/>
  </g>
</svg>
