<svg xmlns="http://www.w3.org/2000/svg" width="82" height="58.084" viewBox="0 0 82 58.084">
  <g id="Groupe_424" data-name="Groupe 424" transform="translate(18844 19591.4)">
    <rect id="Rectangle_604" data-name="Rectangle 604" width="82" height="58.084" transform="translate(-18844 -19591.4)" fill="none"/>
    <g id="IINSPIRE_LOGO_BLANC" transform="translate(-18844 -19576.596)">
      <rect id="Rectangle_58" data-name="Rectangle 58" width="2.089" height="9.496" transform="translate(0 9.492)" fill="#fff"/>
      <path id="Tracé_78" data-name="Tracé 78" d="M16.6,28.83,10.046,23.6H9.994v9.5h2.089V28.055l6.543,5.039h.052V23.6H16.6Z" transform="translate(-5.974 -14.106)" fill="#fff"/>
      <path id="Tracé_79" data-name="Tracé 79" d="M37.089,25.925c0-.538.411-.791.918-.791a2.171,2.171,0,0,1,1.551.823l1.393-1.33a3.89,3.89,0,0,0-2.928-1.345,2.808,2.808,0,0,0-3.039,2.8c0,3.229,4.384,2.453,4.384,4.115,0,.522-.443.87-1.171.87a2.053,2.053,0,0,1-1.9-1.234L34.573,30.91a4.043,4.043,0,0,0,3.609,2.121c1.773,0,3.276-1.045,3.276-2.817,0-3.514-4.368-2.643-4.368-4.289" transform="translate(-20.666 -13.917)" fill="#fff"/>
      <path id="Tracé_80" data-name="Tracé 80" d="M58.95,23.6H54.914v9.5H57V29.247H58.95a2.751,2.751,0,0,0,2.833-2.786A2.827,2.827,0,0,0,58.95,23.6m-.332,3.925H57V25.433h1.614a1.052,1.052,0,1,1,0,2.089" transform="translate(-32.825 -14.105)" fill="#fff"/>
      <rect id="Rectangle_59" data-name="Rectangle 59" width="2.089" height="9.496" transform="translate(30.034 9.492)" fill="#fff"/>
      <path id="Tracé_81" data-name="Tracé 81" d="M91.528,26.509A2.829,2.829,0,0,0,88.695,23.6H84.659v9.5h2.089V29.421h.839l2.342,3.672h2.342l-2.659-3.909a2.719,2.719,0,0,0,1.915-2.675M88.378,27.7h-1.63V25.449h1.63a1.124,1.124,0,1,1,0,2.247" transform="translate(-50.606 -14.105)" fill="#fff"/>
      <path id="Tracé_82" data-name="Tracé 82" d="M131.189,9.492h7.245v1.836h-5.18v1.994h4.632v1.836h-4.632v1.994h5.18v1.836h-7.245Zm-1.571,0v9.5h-2.107V14.533l-2.5,2.4-2.5-2.4v4.456h-2.107v-9.5h.123l4.483,4.78,4.482-4.78ZM120.6,43.276v0l24.79-9.13V0l-37.3,4.719,1.549,4.772h-3.59v9.5h6.672Zm-8.478-26.124h-3.969V15.159h3.322Zm-1.243-3.83h-2.726V11.329h2.079Zm18.743,9.026h-3.552v7.645h-2.09V22.349h-3.569V20.5h9.211Zm8.82,5.818v1.852H130.68l4.411-7.645h-3.9V20.523h7.281l-4.376,7.645Z" transform="translate(-63.388 -0.001)" fill="#fff"/>
      <rect id="Rectangle_60" data-name="Rectangle 60" width="82" height="43.279" transform="translate(0 0)" fill="none" opacity="0"/>
    </g>
  </g>
</svg>
