<svg xmlns="http://www.w3.org/2000/svg" width="25" height="25" viewBox="0 0 25 25">
  <g id="social-facebook" transform="translate(-230.5 -62.5)">
    <rect id="Rectangle_70" data-name="Rectangle 70" width="24" height="24" transform="translate(231 63)" fill="#fff" stroke="rgba(0,0,0,0)" stroke-width="1" opacity="0"/>
    <path id="Tracé_90" data-name="Tracé 90" d="M12,2A10,10,0,0,0,10.439,21.88V14.892H7.9V12h2.54V9.8a3.528,3.528,0,0,1,3.776-3.891,15.438,15.438,0,0,1,2.24.2V8.561H15.191a1.446,1.446,0,0,0-1.628,1.563V12h2.771l-.443,2.891H13.563v6.988A10,10,0,0,0,12,2" transform="translate(231 63)" fill="#fff" stroke="rgba(0,0,0,0)" stroke-width="1"/>
  </g>
</svg>
