<svg xmlns="http://www.w3.org/2000/svg" width="24" height="24" viewBox="0 0 24 24">
  <g id="social-linkedin" transform="translate(-1755 -943)">
    <rect id="Rectangle_30" data-name="Rectangle 30" width="24" height="24" transform="translate(1755 943)" fill="#fff" opacity="0"/>
    <path id="Tracé_60" data-name="Tracé 60" d="M4.777,2.821A1.982,1.982,0,1,1,2.8,4.8,1.982,1.982,0,0,1,4.777,2.821" transform="translate(1755.857 943.856)" fill="#fff"/>
    <path id="Tracé_61" data-name="Tracé 61" d="M8.658,8.827v11h3.414V14.385c0-1.435.27-2.824,2.049-2.824,1.755,0,1.776,1.64,1.776,2.915v5.348h3.416v-6.03c0-2.962-.638-5.238-4.1-5.238a3.59,3.59,0,0,0-3.232,1.775h-.046v-1.5Zm-5.563,0H6.514v11H3.1Z" transform="translate(1755.829 943.316)" fill="#fff"/>
  </g>
</svg>
